#!OML:ASF F:\VICON\USERDATA\INSTALL\rory3\rory3.ASF
:FULLY-SPECIFIED
:DEGREES
635
root -0.0119936 16.9033 17.166 -159.489 -27.801 -176.883
lowerback -12.3037 2.14652 3.14635
upperback -8.90388 1.55306 1.67743
thorax -2.39404 0.243456 0.155305
lowerneck -10.8304 -1.02171 -3.51461
upperneck 21.9898 0.0417435 -7.8501
head 8.67599 -1.47588 -2.12043
rclavicle 1.98785e-016 3.33958e-014
rhumerus -70.1979 33.94 -116.747
rradius 38.0258
rwrist -36.4808
rhand 22.445 2.31502
rfingers 7.12502
rthumb 46.8056 -20.4364
lclavicle 1.98785e-016 3.33958e-014
lhumerus -64.5921 -18.7117 101.294
lradius 42.1236
lwrist 10.644
lhand 25.7872 20.213
lfingers 7.12502
lthumb 49.8829 41.497
rfemur -30.9554 3.64966 35.0026
rtibia 28.7059
rfoot -37.6912 -30.8417
rtoes 38.537
lfemur -25.4965 32.0779 -24.8593
ltibia 55.5532
lfoot 21.6481 44.526
ltoes 34.5932
636
root -0.00957956 16.9037 17.1771 -159.473 -27.7505 -176.898
lowerback -12.1498 2.13317 3.122
upperback -8.97409 1.54016 1.7148
thorax -2.55339 0.233563 0.203882
lowerneck -11.1985 -0.899981 -3.78656
upperneck 22.5027 0.226132 -7.45932
head 8.92694 -1.40435 -1.9418
rclavicle -3.15571e-014 -4.41302e-014
rhumerus -70.5661 34.1485 -117.116
rradius 38.1348
rwrist -36.8409
rhand 22.2883 2.01498
rfingers 7.12502
rthumb 46.6606 -20.7993
lclavicle -3.15571e-014 -4.41302e-014
lhumerus -64.5759 -18.5238 101.248
lradius 41.918
lwrist 10.6294
lhand 25.6791 19.8534
lfingers 7.12502
lthumb 49.7839 41.1889
rfemur -31.0339 3.67622 34.9492
rtibia 28.6937
rfoot -37.4768 -30.9798
rtoes 38.5075
lfemur -25.5752 32.0345 -24.9618
ltibia 55.5826
lfoot 22.177 44.4166
ltoes 33.3564
637
root -0.00291651 16.9018 17.1833 -159.554 -27.7169 -176.739
lowerback -12.0213 2.17112 3.22153
upperback -9.06405 1.57791 1.76502
thorax -2.71653 0.24089 0.202251
lowerneck -11.2564 -0.824002 -3.78161
upperneck 22.8453 0.305449 -7.31788
head 9.05725 -1.37442 -1.89629
rclavicle -8.48562e-015 -1.31198e-014
rhumerus -71.0144 34.2784 -117.59
rradius 38.1967
rwrist -37.2356
rhand 22.1368 1.86838
rfingers 7.12502
rthumb 46.5202 -21.0064
lclavicle -8.48562e-015 -1.31198e-014
lhumerus -64.7745 -18.4993 101.314
lradius 41.9351
lwrist 10.7697
lhand 25.5318 19.5386
lfingers 7.12502
lthumb 49.649 40.9437
rfemur -31.016 3.82322 35.0807
rtibia 28.6208
rfoot -37.4859 -30.9941
rtoes 38.5258
lfemur -25.6676 32.03 -24.8358
ltibia 55.68
lfoot 21.5467 44.6989
ltoes 34.6076
638
root 0.00561131 16.8995 17.1839 -159.73 -27.697 -176.508
lowerback -11.9289 2.1986 3.33638
upperback -9.13537 1.59939 1.83226
thorax -2.84099 0.240674 0.208839
lowerneck -11.0761 -0.74412 -3.53936
upperneck 23.0202 0.356127 -7.37148
head 9.08287 -1.34807 -1.95308
rclavicle 7.50909e-014 4.53229e-014
rhumerus -71.34 34.1402 -117.839
rradius 38.1875
rwrist -37.3203
rhand 22.323 1.82141
rfingers 7.12502
rthumb 46.6926 -20.979
lclavicle 7.50909e-014 4.53229e-014
lhumerus -64.9895 -18.3912 101.237
lradius 41.9331
lwrist 10.7092
lhand 25.5538 19.2616
lfingers 7.12502
lthumb 49.6691 40.6563
rfemur -30.8796 4.09522 35.2699
rtibia 28.5162
rfoot -37.6112 -31.1013
rtoes 38.6962
lfemur -25.6101 32.0277 -24.5283
ltibia 55.7722
lfoot 19.1198 45.6433
ltoes 36.985
639
root 0.0114428 16.8985 17.1863 -159.814 -27.7104 -176.436
lowerback -11.8162 2.21695 3.37435
upperback -9.18257 1.62371 1.8498
thorax -2.95112 0.247882 0.20624
lowerneck -11.1372 -0.661518 -3.3962
upperneck 23.3085 0.43744 -7.3209
head 9.19509 -1.31075 -1.96011
rclavicle 2.06985e-014 3.10104e-014
rhumerus -71.4037 33.8511 -117.772
rradius 38.1039
rwrist -37.1504
rhand 22.3725 1.82993
rfingers 7.12502
rthumb 46.7385 -20.9506
lclavicle 2.06985e-014 3.10104e-014
lhumerus -65.1371 -18.4349 101.299
lradius 41.88
lwrist 10.8007
lhand 25.4966 19.3941
lfingers 7.12502
lthumb 49.6167 40.8158
rfemur -30.7865 4.19862 35.336
rtibia 28.424
rfoot -37.6067 -31.2217
rtoes 38.5842
lfemur -25.5821 32.0277 -24.395
ltibia 55.8391
lfoot 18.1782 45.8252
ltoes 38.3571
640
root 0.014318 16.902 17.1899 -159.793 -27.779 -176.527
lowerback -11.6765 2.24013 3.32585
upperback -9.24725 1.66514 1.82045
thorax -3.09512 0.266688 0.20397
lowerneck -11.29 -0.658466 -3.4904
upperneck 23.6755 0.426189 -7.09631
head 9.35151 -1.32207 -1.88033
rclavicle -3.67752e-014 2.06736e-014
rhumerus -71.5431 33.7536 -117.829
rradius 38.159
rwrist -37.3751
rhand 21.8971 2.02152
rfingers 7.12502
rthumb 46.2981 -20.9479
lclavicle -3.67752e-014 2.06736e-014
lhumerus -65.2795 -18.5479 101.44
lradius 41.8482
lwrist 10.8871
lhand 25.5213 19.6286
lfingers 7.12502
lthumb 49.6393 41.0386
rfemur -30.7891 4.02802 35.2909
rtibia 28.4027
rfoot -37.5494 -31.1903
rtoes 38.4494
lfemur -25.5964 31.998 -24.4622
ltibia 55.8427
lfoot 19.4587 45.3351
ltoes 36.598
641
root 0.0185902 16.905 17.1918 -159.727 -27.8265 -176.584
lowerback -11.6465 2.2276 3.23297
upperback -9.35024 1.64636 1.82754
thorax -3.22437 0.253335 0.261404
lowerneck -11.1016 -0.572861 -3.52986
upperneck 23.8328 0.486186 -6.89528
head 9.37076 -1.28561 -1.79987
rclavicle -1.74682e-014 4.33351e-014
rhumerus -71.5916 33.4526 -117.695
rradius 38.0278
rwrist -37.1322
rhand 21.5692 2.32036
rfingers 7.12502
rthumb 45.994 -20.7767
lclavicle -1.74682e-014 4.33351e-014
lhumerus -65.6005 -18.5384 101.514
lradius 42.0611
lwrist 10.8571
lhand 25.616 19.7471
lfingers 7.12502
lthumb 49.7261 41.1124
rfemur -30.8707 3.98367 35.245
rtibia 28.4416
rfoot -37.6908 -31.0226
rtoes 38.8362
lfemur -25.6397 31.9265 -24.5078
ltibia 55.8197
lfoot 18.7736 45.7772
ltoes 36.5697
642
root 0.022218 16.9062 17.1957 -159.581 -27.7327 -176.771
lowerback -11.6667 2.24792 2.9877
upperback -9.3883 1.68883 1.8168
thorax -3.25991 0.283991 0.391358
lowerneck -11.0959 -0.477492 -3.60179
upperneck 24.0357 0.590732 -6.71208
head 9.44233 -1.23617 -1.71826
rclavicle -4.76586e-014 -9.54166e-015
rhumerus -71.6963 33.424 -117.676
rradius 38.0028
rwrist -37.1504
rhand 21.1513 2.51082
rfingers 7.12502
rthumb 45.606 -20.746
lclavicle -4.76586e-014 -9.54166e-015
lhumerus -65.7001 -18.5281 101.58
lradius 42.1731
lwrist 10.861
lhand 25.7684 19.8632
lfingers 7.12502
lthumb 49.8657 41.1561
rfemur -31.0066 3.82361 35.1015
rtibia 28.5211
rfoot -37.5435 -30.9329
rtoes 38.6488
lfemur -25.6859 31.9536 -24.7509
ltibia 55.7597
lfoot 16.1281 45.6721
ltoes 44.723
643
root 0.0244711 16.9078 17.2015 -159.513 -27.7297 -176.854
lowerback -11.6955 2.3378 2.9181
upperback -9.26017 1.83071 1.80259
thorax -3.10727 0.370254 0.428056
lowerneck -11.8357 -0.519233 -3.91274
upperneck 24.5403 0.595498 -6.32709
head 9.76294 -1.24551 -1.55148
rclavicle 3.67503e-014 -2.74323e-014
rhumerus -71.6076 33.8899 -117.734
rradius 38.0995
rwrist -37.9657
rhand 20.633 2.66497
rfingers 7.12502
rthumb 45.1243 -20.7855
lclavicle 3.67503e-014 -2.74323e-014
lhumerus -65.305 -18.7283 101.661
lradius 41.9965
lwrist 10.8489
lhand 25.8423 19.7549
lfingers 7.12502
lthumb 49.9333 41.0126
rfemur -31.1014 3.67024 35.0687
rtibia 28.6168
rfoot -37.5142 -30.7886
rtoes 38.6177
lfemur -25.705 31.9028 -24.8473
ltibia 55.7349
lfoot 16.2519 46.6035
ltoes 38.2009
644
root 0.0270568 16.9112 17.2049 -159.485 -27.7622 -176.926
lowerback -11.6797 2.39479 2.89638
upperback -9.13879 1.92738 1.7867
thorax -2.98525 0.431022 0.431671
lowerneck -12.6085 -0.590478 -4.16215
upperneck 25.0189 0.569517 -6.02683
head 10.0838 -1.27083 -1.42679
rclavicle 2.53202e-014 2.78299e-014
rhumerus -71.2869 34.081 -117.448
rradius 38.0634
rwrist -38.4002
rhand 20.7342 2.66533
rfingers 7.12502
rthumb 45.2184 -20.7477
lclavicle 2.53202e-014 2.78299e-014
lhumerus -64.957 -18.9835 101.832
lradius 41.8047
lwrist 10.9547
lhand 25.7211 19.7374
lfingers 7.12502
lthumb 49.8224 41.0529
rfemur -31.128 3.62939 35.0308
rtibia 28.6903
rfoot -37.4894 -30.8503
rtoes 38.6861
lfemur -25.6781 31.8615 -24.889
ltibia 55.7087
lfoot 14.2129 46.1961
ltoes 45.9348
645
root 0.0278497 16.9149 17.2196 -159.083 -27.6687 -176.975
lowerback -11.873 2.454 2.87807
upperback -9.26623 1.97257 1.79072
thorax -3.01717 0.440437 0.455153
lowerneck -13.0018 -0.576339 -4.28654
upperneck 25.4052 0.620112 -5.87967
head 10.3013 -1.26647 -1.36199
rclavicle 2.43014e-014 1.51076e-014
rhumerus -71.2108 34.1031 -117.233
rradius 37.9721
rwrist -38.6381
rhand 20.916 2.54791
rfingers 7.12502
rthumb 45.3874 -20.7974
lclavicle 2.43014e-014 1.51076e-014
lhumerus -64.8542 -18.9999 101.95
lradius 41.6854
lwrist 11.0549
lhand 25.805 19.8478
lfingers 7.12502
lthumb 49.8992 41.1233
rfemur -31.6332 3.61161 34.9667
rtibia 28.7143
rfoot -37.164 -30.9041
rtoes 38.4485
lfemur -26.3204 31.8123 -25.3378
ltibia 55.7542
lfoot 14.9577 47.3147
ltoes 38.9632
646
root 0.0485673 16.9109 17.2042 -159.345 -27.6468 -176.936
lowerback -11.7021 2.40744 2.55245
upperback -9.21389 1.96003 1.91248
thorax -3.0694 0.46008 0.758262
lowerneck -13.1951 -0.588306 -4.34603
upperneck 25.7305 0.612852 -5.81439
head 10.4583 -1.28973 -1.34093
rclavicle -2.91468e-014 -1.59028e-015
rhumerus -71.2649 34.0364 -117.109
rradius 37.9856
rwrist -38.8524
rhand 20.9879 2.14368
rfingers 7.12502
rthumb 45.4542 -21.1747
lclavicle -2.91468e-014 -1.59028e-015
lhumerus -64.9714 -18.958 102.003
lradius 41.9368
lwrist 10.9594
lhand 25.9919 20.1808
lfingers 7.12502
lthumb 50.0702 41.3665
rfemur -31.2733 4.19992 34.9593
rtibia 28.6727
rfoot -37.6293 -31.3105
rtoes 38.6924
lfemur -25.9607 32.096 -24.9891
ltibia 55.8009
lfoot 14.5591 46.9447
ltoes 39.1465
647
root 0.0547679 16.908 17.2046 -159.307 -27.6735 -176.846
lowerback -11.7786 2.48478 2.60717
upperback -9.23202 2.04954 1.89867
thorax -3.04466 0.4995 0.723369
lowerneck -13.3698 -0.630587 -4.35699
upperneck 26.0935 0.52808 -5.65527
head 10.6242 -1.33181 -1.30468
rclavicle -3.03395e-014 -3.53837e-014
rhumerus -70.998 33.7036 -116.732
rradius 37.7928
rwrist -38.5557
rhand 21.3573 1.94592
rfingers 7.12502
rthumb 45.7973 -21.2325
lclavicle -3.03395e-014 -3.53837e-014
lhumerus -65.0808 -19.1279 102.081
lradius 42.2018
lwrist 10.84
lhand 26.0358 20.2174
lfingers 7.12502
lthumb 50.1104 41.3819
rfemur -31.3267 4.34519 35.0324
rtibia 28.6103
rfoot -37.6985 -31.3473
rtoes 38.7832
lfemur -26.1322 32.2466 -24.9709
ltibia 55.8941
lfoot 14.6499 46.7395
ltoes 39.1527
648
root 0.0580485 16.9053 17.2082 -159.34 -27.8694 -176.649
lowerback -11.8645 2.56455 2.82509
upperback -9.28273 2.12362 1.86287
thorax -3.04272 0.51988 0.573555
lowerneck -13.3632 -0.707578 -4.34405
upperneck 26.4269 0.333668 -5.36285
head 10.7415 -1.40132 -1.23548
rclavicle -4.94974e-014 -4.92986e-014
rhumerus -70.7155 33.1966 -116.382
rradius 37.5599
rwrist -38.2071
rhand 21.8287 1.72657
rfingers 7.12502
rthumb 46.2347 -21.2696
lclavicle -4.94974e-014 -4.92986e-014
lhumerus -65.1321 -19.3752 102.135
lradius 42.1079
lwrist 10.6883
lhand 25.9246 19.5494
lfingers 7.12502
lthumb 50.0086 40.7676
rfemur -31.3522 4.14029 35.2979
rtibia 28.5123
rfoot -37.6682 -31.2058
rtoes 38.8665
lfemur -26.3146 32.2757 -24.8186
ltibia 55.9872
lfoot 16.6808 46.1592
ltoes 38.0002
649
root 0.06283 16.9059 17.2134 -159.289 -27.9622 -176.578
lowerback -11.8199 2.56989 2.88347
upperback -9.46668 2.10512 1.84899
thorax -3.26088 0.491578 0.523796
lowerneck -13.1932 -0.640754 -4.16033
upperneck 26.7119 0.322629 -5.25665
head 10.8109 -1.39506 -1.23641
rclavicle 5.8716e-014 3.49861e-014
rhumerus -70.9499 32.9943 -116.56
rradius 37.4425
rwrist -38.3689
rhand 22.1299 1.50252
rfingers 7.12502
rthumb 46.5138 -21.375
lclavicle 5.8716e-014 3.49861e-014
lhumerus -65.4645 -19.3843 102.223
lradius 42.1776
lwrist 10.6801
lhand 25.765 19.2458
lfingers 7.12502
lthumb 49.8625 40.5404
rfemur -31.4341 4.04736 35.3986
rtibia 28.4479
rfoot -37.7023 -31.087
rtoes 38.8996
lfemur -26.5281 32.2091 -24.8242
ltibia 56.0579
lfoot 18.6403 46.0185
ltoes 35.8588
